<?xml version="1.0" encoding="UTF-8"?>
<!-- Generator: Adobe Illustrator 16.0.0, SVG Export Plug-In . SVG Version: 6.00 Build 0)  -->
<!DOCTYPE svg PUBLIC "-//W3C//DTD SVG 1.1//EN" "http://www.w3.org/Graphics/SVG/1.1/DTD/svg11.dtd">
<svg version="1.1" id="Capa_1" xmlns="http://www.w3.org/2000/svg" xmlns:xlink="http://www.w3.org/1999/xlink" x="0px" y="0px" width="57.525px" height="44.1px" viewBox="0 0 57.525 44.1" enable-background="new 0 0 57.525 44.1" xml:space="preserve">
<g>
	<path fill="#303030" d="M28.763,39.245c-14.414,0-24.039-7.545-24.039-17.195c0-9.651,9.629-17.198,24.039-17.198   c14.439,0,24.037,7.547,24.037,17.198C52.8,31.7,43.165,39.245,28.763,39.245 M54.536,15.829c-0.896-2.731-0.365-4.713-1.914-6.674   C50.825,7.44,48.73,7.78,46.454,6.441c-2.174-1.501-2.688-3.48-4.848-4.298c-2.445-0.74-3.953,0.488-6.73,0.141   C31.829,1.693,31.411,0.098,28.769,0h-0.02c-2.643,0.098-3.062,1.692-6.107,2.283c-2.778,0.348-4.287-0.881-6.73-0.141   C13.75,2.96,13.24,4.94,11.063,6.441C8.787,7.78,6.693,7.44,4.894,9.156c-1.548,1.961-1.016,3.942-1.914,6.674   C1.898,18.476,0,19.394,0,22.034c0,2.642,1.898,3.588,2.98,6.233c0.898,2.733,0.366,4.713,1.914,6.676   c1.799,1.716,3.893,1.376,6.169,2.714c2.177,1.501,2.687,3.479,4.849,4.297c2.443,0.744,3.952-0.488,6.73-0.14   C25.688,42.406,26.107,44,28.75,44.1h0.02c2.642-0.1,3.06-1.693,6.107-2.285c2.777-0.349,4.285,0.884,6.73,0.14   c2.16-0.817,2.674-2.796,4.848-4.297c2.275-1.338,4.371-0.998,6.168-2.714c1.549-1.963,1.018-3.942,1.914-6.676   c1.086-2.646,2.99-3.619,2.99-6.233C57.527,19.379,55.622,18.476,54.536,15.829"/>
	<path fill="#303030" d="M24.617,25.431h-0.99c-0.088,0-0.209,0.031-0.248,0.221c-0.309,1.968-1.031,3.346-3.463,3.346   c-3.358,0-3.741-4.513-3.741-7.893c0-2.221,0.702-6.719,3.618-6.719c2.316,0,3.051,1.247,3.427,3.312   c0.038,0.177,0.115,0.229,0.253,0.229h0.984c0.157,0,0.254-0.098,0.252-0.25v-4.394c0.002-0.159-0.102-0.255-0.252-0.255h-1.004   c-0.128,0-0.174,0.05-0.246,0.199c-0.119,0.258-0.223,0.452-0.565,0.452c-0.249,0-0.421-0.113-0.801-0.29   c-0.47-0.193-1.265-0.479-2.684-0.479c-4.472,0-7.761,3.397-7.761,8.809c0,4.568,2.747,8.74,7.791,8.74   c2.229,0,3.223-0.584,3.782-0.584c0.234,0,0.343,0.159,0.401,0.287c0.062,0.135,0.139,0.161,0.238,0.161h1.008   c0.156-0.001,0.254-0.1,0.254-0.253v-4.385C24.871,25.525,24.764,25.431,24.617,25.431"/>
	<path fill="#303030" d="M27.304,23.592c-0.885,0-1.444-0.563-1.444-1.518c0-0.608,0.354-1.258,0.878-1.587l1.807,2.485   C28.189,23.328,27.852,23.592,27.304,23.592 M28.142,16.841c0.465,0,0.678,0.428,0.678,0.857c0,0.625-0.305,1.086-0.928,1.417   c-0.344-0.504-0.536-0.857-0.536-1.402C27.356,17.249,27.638,16.841,28.142,16.841 M32.806,19.681h-1.957   c-0.17,0-0.211,0.085-0.223,0.135c-0.156,0.626-0.457,1.253-0.9,1.877l-1.222-1.819c0.89-0.389,1.865-0.993,1.865-1.969   c0-1.114-0.924-1.819-2.195-1.819c-1.285,0-2.506,0.695-2.506,2.118c0,0.614,0.268,1.076,0.572,1.481   c-0.982,0.298-2.184,1.194-2.16,2.475c0.029,1.473,1.34,2.34,2.967,2.34c0.662,0,1.521-0.135,2.242-0.7   c0.592,0.599,1.578,0.527,1.578,0.527h0.789c0.16,0,0.201-0.074,0.234-0.154l0.242-0.576c0.086-0.218-0.105-0.194-0.164-0.194   h-0.354c-0.807-0.002-1.193-0.655-1.193-0.655c0.5-0.498,0.578-0.644,0.898-1.094c0.199-0.282,0.48-0.743,0.48-0.743   c0.127-0.195,0.211-0.321,0.426-0.321h0.268c0.115-0.002,0.182-0.054,0.234-0.158l0.23-0.531   C33.052,19.667,32.917,19.681,32.806,19.681"/>
	<path fill="#303030" d="M34.878,24.106l2.703-6.722l2.037,6.722H34.878z M46.874,28.857l-0.303-0.002   c-0.729-0.003-0.947-0.209-1.166-0.831c-0.004-0.003-4.617-13.168-5.182-14.776c-0.051-0.142-0.154-0.22-0.32-0.22h-1.98   c-0.139,0-0.264,0.054-0.328,0.22L31.39,28.093c-0.127,0.302-0.242,0.482-0.537,0.633c-0.291,0.147-0.811,0.126-0.811,0.126   l-0.162,0.005c-0.156,0-0.254,0.098-0.254,0.252v0.961c0,0.162,0.102,0.252,0.254,0.253h4.828c0.158-0.001,0.254-0.102,0.254-0.254   v-0.962c0-0.157-0.102-0.249-0.254-0.25l-0.537-0.005c-0.441-0.006-0.908-0.032-0.906-0.521c0-0.148,0.043-0.335,0.141-0.578   l0.945-2.322h5.652c0.262,0.73,0.68,2.07,0.68,2.07s0.148,0.453,0.195,0.644c0.018,0.071,0.035,0.162,0.033,0.255   c-0.006,0.213-0.121,0.436-0.584,0.443l-0.59,0.014c-0.15,0-0.254,0.098-0.254,0.252v0.963c0,0.148,0.098,0.25,0.254,0.251h7.137   c0.148-0.001,0.254-0.095,0.254-0.254v-0.96C47.128,28.952,47.027,28.857,46.874,28.857"/>
</g>
</svg>